<mxfile host="app.diagrams.net" modified="2022-02-23T10:42:34.855Z" agent="5.0 (Macintosh; Intel Mac OS X 10_15_7) AppleWebKit/537.36 (KHTML, like Gecko) Chrome/98.0.4758.102 Safari/537.36" etag="EHtqtq7kDCODmLN-EuXh" version="16.6.2" type="github">
  <diagram id="zzds6Kp185NoCfkkMVd4" name="Page-1">
    <mxGraphModel dx="4527" dy="540" grid="1" gridSize="10" guides="1" tooltips="1" connect="1" arrows="1" fold="1" page="1" pageScale="1" pageWidth="1800" pageHeight="275" math="0" shadow="0">
      <root>
        <mxCell id="0" />
        <mxCell id="1" parent="0" />
        <mxCell id="vfDE0F-g4eyqGm4I5YMs-8" value="&lt;font style=&quot;font-size: 18px&quot;&gt;C4 Code&lt;/font&gt;" style="text;html=1;strokeColor=none;fillColor=none;align=center;verticalAlign=middle;whiteSpace=wrap;rounded=0;" parent="1" vertex="1">
          <mxGeometry x="-3040" y="412" width="320" height="30" as="geometry" />
        </mxCell>
        <mxCell id="vhOyKskHNwgcd2-jiubX-43" style="edgeStyle=orthogonalEdgeStyle;rounded=0;orthogonalLoop=1;jettySize=auto;html=1;exitX=1;exitY=0.25;exitDx=0;exitDy=0;entryX=0;entryY=0.25;entryDx=0;entryDy=0;dashed=1;fontSize=14;startArrow=none;startFill=0;endArrow=block;endFill=1;" parent="1" source="vhOyKskHNwgcd2-jiubX-2" target="vhOyKskHNwgcd2-jiubX-6" edge="1">
          <mxGeometry relative="1" as="geometry" />
        </mxCell>
        <mxCell id="vhOyKskHNwgcd2-jiubX-44" value="use" style="edgeLabel;html=1;align=center;verticalAlign=middle;resizable=0;points=[];fontSize=14;" parent="vhOyKskHNwgcd2-jiubX-43" vertex="1" connectable="0">
          <mxGeometry x="-0.5196" y="2" relative="1" as="geometry">
            <mxPoint x="10" as="offset" />
          </mxGeometry>
        </mxCell>
        <mxCell id="vhOyKskHNwgcd2-jiubX-2" value="Http handler" style="swimlane;fontStyle=1;align=center;verticalAlign=top;childLayout=stackLayout;horizontal=1;startSize=26;horizontalStack=0;resizeParent=1;resizeParentMax=0;resizeLast=0;collapsible=1;marginBottom=0;" parent="1" vertex="1">
          <mxGeometry x="-3140" y="189" width="130" height="52" as="geometry" />
        </mxCell>
        <mxCell id="vhOyKskHNwgcd2-jiubX-3" value=" " style="text;strokeColor=none;fillColor=none;align=left;verticalAlign=top;spacingLeft=4;spacingRight=4;overflow=hidden;rotatable=0;points=[[0,0.5],[1,0.5]];portConstraint=eastwest;" parent="vhOyKskHNwgcd2-jiubX-2" vertex="1">
          <mxGeometry y="26" width="130" height="26" as="geometry" />
        </mxCell>
        <mxCell id="vhOyKskHNwgcd2-jiubX-41" style="edgeStyle=orthogonalEdgeStyle;rounded=0;orthogonalLoop=1;jettySize=auto;html=1;exitX=1;exitY=0.25;exitDx=0;exitDy=0;entryX=0;entryY=0.25;entryDx=0;entryDy=0;dashed=1;fontSize=18;startArrow=none;startFill=0;endArrow=block;endFill=1;" parent="1" source="vhOyKskHNwgcd2-jiubX-6" target="vhOyKskHNwgcd2-jiubX-13" edge="1">
          <mxGeometry relative="1" as="geometry" />
        </mxCell>
        <mxCell id="vhOyKskHNwgcd2-jiubX-42" value="&lt;font style=&quot;font-size: 14px&quot;&gt;use&lt;/font&gt;" style="edgeLabel;html=1;align=center;verticalAlign=middle;resizable=0;points=[];fontSize=18;" parent="vhOyKskHNwgcd2-jiubX-41" vertex="1" connectable="0">
          <mxGeometry x="-0.7036" relative="1" as="geometry">
            <mxPoint x="11" as="offset" />
          </mxGeometry>
        </mxCell>
        <mxCell id="vhOyKskHNwgcd2-jiubX-6" value="RPC Client" style="swimlane;fontStyle=1;align=center;verticalAlign=top;childLayout=stackLayout;horizontal=1;startSize=26;horizontalStack=0;resizeParent=1;resizeParentMax=0;resizeLast=0;collapsible=1;marginBottom=0;" parent="1" vertex="1">
          <mxGeometry x="-2950" y="189" width="120" height="52" as="geometry" />
        </mxCell>
        <mxCell id="vhOyKskHNwgcd2-jiubX-7" value=" " style="text;strokeColor=none;fillColor=none;align=left;verticalAlign=top;spacingLeft=4;spacingRight=4;overflow=hidden;rotatable=0;points=[[0,0.5],[1,0.5]];portConstraint=eastwest;" parent="vhOyKskHNwgcd2-jiubX-6" vertex="1">
          <mxGeometry y="26" width="120" height="26" as="geometry" />
        </mxCell>
        <mxCell id="vhOyKskHNwgcd2-jiubX-13" value="connection" style="swimlane;fontStyle=1;align=center;verticalAlign=top;childLayout=stackLayout;horizontal=1;startSize=26;horizontalStack=0;resizeParent=1;resizeParentMax=0;resizeLast=0;collapsible=1;marginBottom=0;" parent="1" vertex="1">
          <mxGeometry x="-2700" y="189" width="125" height="52" as="geometry" />
        </mxCell>
        <mxCell id="vhOyKskHNwgcd2-jiubX-14" value="conn" style="text;strokeColor=none;fillColor=none;align=left;verticalAlign=top;spacingLeft=4;spacingRight=4;overflow=hidden;rotatable=0;points=[[0,0.5],[1,0.5]];portConstraint=eastwest;" parent="vhOyKskHNwgcd2-jiubX-13" vertex="1">
          <mxGeometry y="26" width="125" height="26" as="geometry" />
        </mxCell>
        <mxCell id="vhOyKskHNwgcd2-jiubX-40" style="edgeStyle=orthogonalEdgeStyle;rounded=0;orthogonalLoop=1;jettySize=auto;html=1;exitX=0.5;exitY=0;exitDx=0;exitDy=0;entryX=0.484;entryY=1.017;entryDx=0;entryDy=0;entryPerimeter=0;dashed=1;fontSize=18;endArrow=open;endFill=0;startArrow=diamond;startFill=0;" parent="1" source="vhOyKskHNwgcd2-jiubX-20" target="vhOyKskHNwgcd2-jiubX-14" edge="1">
          <mxGeometry relative="1" as="geometry" />
        </mxCell>
        <mxCell id="vhOyKskHNwgcd2-jiubX-20" value="pool" style="swimlane;fontStyle=1;align=center;verticalAlign=top;childLayout=stackLayout;horizontal=1;startSize=26;horizontalStack=0;resizeParent=1;resizeParentMax=0;resizeLast=0;collapsible=1;marginBottom=0;" parent="1" vertex="1">
          <mxGeometry x="-2700" y="290" width="120" height="52" as="geometry" />
        </mxCell>
        <mxCell id="vhOyKskHNwgcd2-jiubX-21" value=" " style="text;strokeColor=none;fillColor=none;align=left;verticalAlign=top;spacingLeft=4;spacingRight=4;overflow=hidden;rotatable=0;points=[[0,0.5],[1,0.5]];portConstraint=eastwest;" parent="1" vertex="1">
          <mxGeometry x="-2675" y="92" width="120" height="26" as="geometry" />
        </mxCell>
        <mxCell id="vhOyKskHNwgcd2-jiubX-31" style="edgeStyle=orthogonalEdgeStyle;rounded=0;orthogonalLoop=1;jettySize=auto;html=1;exitX=0.5;exitY=1;exitDx=0;exitDy=0;dashed=1;fontSize=18;" parent="1" source="vhOyKskHNwgcd2-jiubX-25" target="vhOyKskHNwgcd2-jiubX-29" edge="1">
          <mxGeometry relative="1" as="geometry" />
        </mxCell>
        <mxCell id="vhOyKskHNwgcd2-jiubX-25" value="RPC Server" style="swimlane;fontStyle=1;align=center;verticalAlign=top;childLayout=stackLayout;horizontal=1;startSize=26;horizontalStack=0;resizeParent=1;resizeParentMax=0;resizeLast=0;collapsible=1;marginBottom=0;" parent="1" vertex="1">
          <mxGeometry x="-2440" y="189" width="120" height="52" as="geometry" />
        </mxCell>
        <mxCell id="vhOyKskHNwgcd2-jiubX-26" value=" " style="text;strokeColor=none;fillColor=none;align=left;verticalAlign=top;spacingLeft=4;spacingRight=4;overflow=hidden;rotatable=0;points=[[0,0.5],[1,0.5]];portConstraint=eastwest;" parent="vhOyKskHNwgcd2-jiubX-25" vertex="1">
          <mxGeometry y="26" width="120" height="26" as="geometry" />
        </mxCell>
        <mxCell id="vhOyKskHNwgcd2-jiubX-27" style="edgeStyle=orthogonalEdgeStyle;rounded=0;orthogonalLoop=1;jettySize=auto;html=1;exitX=0;exitY=0.25;exitDx=0;exitDy=0;entryX=1;entryY=0.25;entryDx=0;entryDy=0;dashed=1;fontSize=18;" parent="1" source="vhOyKskHNwgcd2-jiubX-25" target="vhOyKskHNwgcd2-jiubX-13" edge="1">
          <mxGeometry relative="1" as="geometry">
            <mxPoint x="-2460" y="154" as="sourcePoint" />
            <mxPoint x="-2560" y="202" as="targetPoint" />
          </mxGeometry>
        </mxCell>
        <mxCell id="vhOyKskHNwgcd2-jiubX-28" value="&lt;font style=&quot;font-size: 16px&quot;&gt;use&lt;/font&gt;" style="edgeLabel;html=1;align=center;verticalAlign=middle;resizable=0;points=[];fontSize=18;" parent="vhOyKskHNwgcd2-jiubX-27" vertex="1" connectable="0">
          <mxGeometry x="-0.5751" y="-1" relative="1" as="geometry">
            <mxPoint x="-25" as="offset" />
          </mxGeometry>
        </mxCell>
        <mxCell id="vhOyKskHNwgcd2-jiubX-29" value="handler" style="swimlane;fontStyle=1;align=center;verticalAlign=top;childLayout=stackLayout;horizontal=1;startSize=26;horizontalStack=0;resizeParent=1;resizeParentMax=0;resizeLast=0;collapsible=1;marginBottom=0;" parent="1" vertex="1">
          <mxGeometry x="-2440" y="290" width="120" height="52" as="geometry" />
        </mxCell>
        <mxCell id="vhOyKskHNwgcd2-jiubX-30" value=" " style="text;strokeColor=none;fillColor=none;align=left;verticalAlign=top;spacingLeft=4;spacingRight=4;overflow=hidden;rotatable=0;points=[[0,0.5],[1,0.5]];portConstraint=eastwest;" parent="vhOyKskHNwgcd2-jiubX-29" vertex="1">
          <mxGeometry y="26" width="120" height="26" as="geometry" />
        </mxCell>
        <mxCell id="vhOyKskHNwgcd2-jiubX-38" style="edgeStyle=orthogonalEdgeStyle;rounded=0;orthogonalLoop=1;jettySize=auto;html=1;exitX=0.5;exitY=0;exitDx=0;exitDy=0;entryX=0.223;entryY=1.026;entryDx=0;entryDy=0;entryPerimeter=0;dashed=1;fontSize=18;endArrow=block;endFill=0;" parent="1" source="vhOyKskHNwgcd2-jiubX-32" target="vhOyKskHNwgcd2-jiubX-30" edge="1">
          <mxGeometry relative="1" as="geometry" />
        </mxCell>
        <mxCell id="vhOyKskHNwgcd2-jiubX-32" value="login handler" style="swimlane;fontStyle=1;align=center;verticalAlign=top;childLayout=stackLayout;horizontal=1;startSize=26;horizontalStack=0;resizeParent=1;resizeParentMax=0;resizeLast=0;collapsible=1;marginBottom=0;" parent="1" vertex="1">
          <mxGeometry x="-2540" y="400" width="120" height="52" as="geometry" />
        </mxCell>
        <mxCell id="vhOyKskHNwgcd2-jiubX-39" style="edgeStyle=orthogonalEdgeStyle;rounded=0;orthogonalLoop=1;jettySize=auto;html=1;exitX=0.5;exitY=0;exitDx=0;exitDy=0;entryX=0.802;entryY=1.002;entryDx=0;entryDy=0;entryPerimeter=0;dashed=1;fontSize=18;endArrow=block;endFill=0;" parent="1" source="vhOyKskHNwgcd2-jiubX-34" target="vhOyKskHNwgcd2-jiubX-30" edge="1">
          <mxGeometry relative="1" as="geometry" />
        </mxCell>
        <mxCell id="vhOyKskHNwgcd2-jiubX-34" value="image handler" style="swimlane;fontStyle=1;align=center;verticalAlign=top;childLayout=stackLayout;horizontal=1;startSize=26;horizontalStack=0;resizeParent=1;resizeParentMax=0;resizeLast=0;collapsible=1;marginBottom=0;" parent="1" vertex="1">
          <mxGeometry x="-2340" y="400" width="120" height="52" as="geometry" />
        </mxCell>
        <mxCell id="vhOyKskHNwgcd2-jiubX-35" value=" " style="text;strokeColor=none;fillColor=none;align=left;verticalAlign=top;spacingLeft=4;spacingRight=4;overflow=hidden;rotatable=0;points=[[0,0.5],[1,0.5]];portConstraint=eastwest;" parent="vhOyKskHNwgcd2-jiubX-34" vertex="1">
          <mxGeometry y="26" width="120" height="26" as="geometry" />
        </mxCell>
        <mxCell id="vhOyKskHNwgcd2-jiubX-54" value="TCP Conn" style="swimlane;fontStyle=1;align=center;verticalAlign=top;childLayout=stackLayout;horizontal=1;startSize=26;horizontalStack=0;resizeParent=1;resizeParentMax=0;resizeLast=0;collapsible=1;marginBottom=0;fontSize=12;" parent="1" vertex="1">
          <mxGeometry x="-2950" y="290" width="120" height="86" as="geometry" />
        </mxCell>
        <mxCell id="vhOyKskHNwgcd2-jiubX-55" value="send chan" style="text;strokeColor=none;fillColor=none;align=left;verticalAlign=top;spacingLeft=4;spacingRight=4;overflow=hidden;rotatable=0;points=[[0,0.5],[1,0.5]];portConstraint=eastwest;fontSize=12;" parent="vhOyKskHNwgcd2-jiubX-54" vertex="1">
          <mxGeometry y="26" width="120" height="26" as="geometry" />
        </mxCell>
        <mxCell id="vhOyKskHNwgcd2-jiubX-56" value="" style="line;strokeWidth=1;fillColor=none;align=left;verticalAlign=middle;spacingTop=-1;spacingLeft=3;spacingRight=3;rotatable=0;labelPosition=right;points=[];portConstraint=eastwest;fontSize=12;" parent="vhOyKskHNwgcd2-jiubX-54" vertex="1">
          <mxGeometry y="52" width="120" height="8" as="geometry" />
        </mxCell>
        <mxCell id="vhOyKskHNwgcd2-jiubX-57" value="recv chan" style="text;strokeColor=none;fillColor=none;align=left;verticalAlign=top;spacingLeft=4;spacingRight=4;overflow=hidden;rotatable=0;points=[[0,0.5],[1,0.5]];portConstraint=eastwest;fontSize=12;" parent="vhOyKskHNwgcd2-jiubX-54" vertex="1">
          <mxGeometry y="60" width="120" height="26" as="geometry" />
        </mxCell>
        <mxCell id="vhOyKskHNwgcd2-jiubX-58" style="edgeStyle=orthogonalEdgeStyle;rounded=0;orthogonalLoop=1;jettySize=auto;html=1;exitX=0;exitY=0.5;exitDx=0;exitDy=0;entryX=1.004;entryY=0.161;entryDx=0;entryDy=0;entryPerimeter=0;dashed=1;fontSize=12;startArrow=none;startFill=0;endArrow=block;endFill=1;" parent="1" source="vhOyKskHNwgcd2-jiubX-14" target="vhOyKskHNwgcd2-jiubX-54" edge="1">
          <mxGeometry relative="1" as="geometry" />
        </mxCell>
        <mxCell id="qM3wl9wCvEZQi3yVPu1m-1" value="" style="rounded=0;whiteSpace=wrap;html=1;fillColor=none;dashed=1;strokeWidth=2;" vertex="1" parent="1">
          <mxGeometry x="-2560" y="270" width="365" height="200" as="geometry" />
        </mxCell>
        <mxCell id="qM3wl9wCvEZQi3yVPu1m-2" value="use&amp;nbsp;&lt;span style=&quot;color: rgb(51 , 51 , 51) ; font-family: &amp;#34;helvetica neue&amp;#34; , &amp;#34;helvetica&amp;#34; , &amp;#34;pingfang sc&amp;#34; , &amp;#34;hiragino sans gb&amp;#34; , &amp;#34;microsoft yahei&amp;#34; , &amp;#34;noto sans cjk sc&amp;#34; , &amp;#34;wenquanyi micro hei&amp;#34; , &amp;#34;arial&amp;#34; , sans-serif ; font-size: 13px ; background-color: rgb(255 , 255 , 255)&quot;&gt;Strategy Pattern&lt;/span&gt;" style="text;html=1;strokeColor=none;fillColor=none;align=center;verticalAlign=middle;whiteSpace=wrap;rounded=0;dashed=1;" vertex="1" parent="1">
          <mxGeometry x="-2450" y="480" width="145" height="30" as="geometry" />
        </mxCell>
      </root>
    </mxGraphModel>
  </diagram>
</mxfile>
